<svg xmlns="http://www.w3.org/2000/svg" viewBox="0 0 1020 480" font-family="DejaVu Sans, Arial, sans-serif" font-size="11">
<rect width="1020" height="480" fill="#ffffff"/>
<text x="20" y="18" font-size="13" font-weight="bold">GS8 D2 harness (generated by make_tables.py from layout.py; proxies, not verified)</text>
<line x1="95" y1="400" x2="95" y2="340" stroke="#444" stroke-width="1.4"/>
<text x="95" y="366" fill="#1a4f8a" font-size="10" text-anchor="middle">pack_lead 18 AWG 60</text>
<line x1="170" y1="320" x2="300" y2="330" stroke="#444" stroke-width="1.4"/>
<text x="235" y="321" fill="#1a4f8a" font-size="10" text-anchor="middle">pigtail 18 AWG 180</text>
<line x1="400" y1="300" x2="400" y2="260" stroke="#444" stroke-width="1.4"/>
<text x="400" y="276" fill="#1a4f8a" font-size="10" text-anchor="middle">pogo: 5V, GND, I2C</text>
<line x1="170" y1="145" x2="300" y2="160" stroke="#444" stroke-width="1.4"/>
<text x="235" y="148" fill="#1a4f8a" font-size="10" text-anchor="middle">button (mech.)</text>
<line x1="170" y1="60" x2="300" y2="160" stroke="#444" stroke-width="1.4"/>
<text x="235" y="106" fill="#1a4f8a" font-size="10" text-anchor="middle">FAN JST-SH</text>
<line x1="500" y1="160" x2="660" y2="42" stroke="#444" stroke-width="1.4"/>
<text x="580" y="97" fill="#1a4f8a" font-size="10" text-anchor="middle">fpc 200: CAM/DISP 1</text>
<line x1="500" y1="160" x2="660" y2="112" stroke="#444" stroke-width="1.4"/>
<text x="580" y="132" fill="#1a4f8a" font-size="10" text-anchor="middle">hdmi 200 + usb_5v (1N5817)</text>
<line x1="840" y1="112" x2="880" y2="112" stroke="#444" stroke-width="1.4"/>
<text x="860" y="108" fill="#1a4f8a" font-size="10" text-anchor="middle">flex 50</text>
<line x1="500" y1="160" x2="660" y2="182" stroke="#444" stroke-width="1.4"/>
<text x="580" y="167" fill="#1a4f8a" font-size="10" text-anchor="middle">USB 3 lower</text>
<line x1="500" y1="160" x2="660" y2="252" stroke="#444" stroke-width="1.4"/>
<text x="580" y="202" fill="#1a4f8a" font-size="10" text-anchor="middle">qt 150: pins 1/3/5/6</text>
<line x1="500" y1="160" x2="660" y2="322" stroke="#444" stroke-width="1.4"/>
<text x="580" y="237" fill="#1a4f8a" font-size="10" text-anchor="middle">fps_lead: 33/34, GPIO13</text>
<line x1="500" y1="160" x2="660" y2="392" stroke="#444" stroke-width="1.4"/>
<text x="580" y="272" fill="#1a4f8a" font-size="10" text-anchor="middle">run_lead: 37/39, GPIO26</text>
<rect x="20" y="400" width="150" height="60" rx="4" fill="#f4f4f2" stroke="#222"/>
<text x="95" y="416" text-anchor="middle" font-weight="bold">1S2P 18650 pack</text>
<text x="95" y="430" text-anchor="middle">BMS &gt;= 10 A (grip)</text>
<rect x="20" y="300" width="150" height="40" rx="4" fill="#f4f4f2" stroke="#222"/>
<text x="95" y="316" text-anchor="middle" font-weight="bold">XT30U junction</text>
<text x="95" y="330" text-anchor="middle">(grip mouth)</text>
<rect x="300" y="300" width="200" height="60" rx="4" fill="#f4f4f2" stroke="#222"/>
<text x="400" y="316" text-anchor="middle" font-weight="bold">Geekworm X1203</text>
<text x="400" y="330" text-anchor="middle">1S -&gt; 5.1 V 5 A, gauge 0x36</text>
<rect x="300" y="60" width="200" height="200" rx="4" fill="#f4f4f2" stroke="#222"/>
<text x="400" y="76" text-anchor="middle" font-weight="bold">Raspberry Pi 5</text>
<text x="400" y="90" text-anchor="middle">EEPROM PSU_MAX_CURRENT=5000</text>
<text x="400" y="104" text-anchor="middle">POWER_OFF_ON_HALT=1</text>
<rect x="20" y="120" width="150" height="50" rx="4" fill="#f4f4f2" stroke="#222"/>
<text x="95" y="136" text-anchor="middle" font-weight="bold">printed plunger</text>
<text x="95" y="150" text-anchor="middle">-&gt; Pi power button</text>
<rect x="20" y="40" width="150" height="40" rx="4" fill="#f4f4f2" stroke="#222"/>
<text x="95" y="56" text-anchor="middle" font-weight="bold">Active Cooler</text>
<rect x="660" y="20" width="180" height="44" rx="4" fill="#f4f4f2" stroke="#222"/>
<text x="750" y="36" text-anchor="middle" font-weight="bold">GS camera (IMX296)</text>
<rect x="660" y="90" width="180" height="44" rx="4" fill="#f4f4f2" stroke="#222"/>
<text x="750" y="106" text-anchor="middle" font-weight="bold">EVF board (Rev I)</text>
<rect x="880" y="90" width="120" height="44" rx="4" fill="#f4f4f2" stroke="#222"/>
<text x="940" y="106" text-anchor="middle" font-weight="bold">HMX039 OLED</text>
<rect x="660" y="160" width="180" height="44" rx="4" fill="#f4f4f2" stroke="#222"/>
<text x="750" y="176" text-anchor="middle" font-weight="bold">SDCZ880 USB stick</text>
<rect x="660" y="230" width="180" height="44" rx="4" fill="#f4f4f2" stroke="#222"/>
<text x="750" y="246" text-anchor="middle" font-weight="bold">5880 encoder 0x37</text>
<rect x="660" y="300" width="180" height="44" rx="4" fill="#f4f4f2" stroke="#222"/>
<text x="750" y="316" text-anchor="middle" font-weight="bold">18/24 rotary</text>
<rect x="660" y="370" width="180" height="44" rx="4" fill="#f4f4f2" stroke="#222"/>
<text x="750" y="386" text-anchor="middle" font-weight="bold">run button (grip)</text>
</svg>
